<svg width="30" height="33" viewBox="0 0 30 33" fill="none" xmlns="http://www.w3.org/2000/svg">
<path d="M17.5 19.1668H20V11.2158H12.5V13.8661H15.7322L9.07028 20.9287L10.8381 22.8027L17.5 15.7402V19.1668Z" fill="black"/>
<path fill-rule="evenodd" clip-rule="evenodd" d="M28.75 25.8412C28.75 28.7687 26.5114 31.1418 23.75 31.1418H6.25C3.48858 31.1418 1.25 28.7687 1.25 25.8412V7.28893C1.25 4.36146 3.48858 1.98828 6.25 1.98828H23.75C26.5114 1.98828 28.75 4.36146 28.75 7.28893V25.8412ZM23.75 28.4915H6.25C4.86929 28.4915 3.75 27.3049 3.75 25.8412V7.28893C3.75 5.8252 4.86929 4.63861 6.25 4.63861H23.75C25.1307 4.63861 26.25 5.8252 26.25 7.28893V25.8412C26.25 27.3049 25.1307 28.4915 23.75 28.4915Z" fill="black"/>
</svg>
