<?xml version="1.0" standalone="no"?>
<!DOCTYPE svg PUBLIC "-//W3C//DTD SVG 20010904//EN"
 "http://www.w3.org/TR/2001/REC-SVG-20010904/DTD/svg10.dtd">
<svg version="1.0" xmlns="http://www.w3.org/2000/svg"
 width="512.000000pt" height="512.000000pt" viewBox="0 0 512.000000 512.000000"
 preserveAspectRatio="xMidYMid meet">
<metadata>
Created by potrace 1.16, written by Peter Selinger 2001-2019
</metadata>
<g transform="translate(0.000000,512.000000) scale(0.100000,-0.100000)"
fill="#000000" stroke="none">
<path d="M243 5102 c-97 -34 -186 -122 -224 -223 -19 -48 -20 -74 -17 -413 l3
-361 27 -55 c35 -71 107 -143 178 -178 l55 -27 2295 0 2295 0 55 27 c71 35
143 107 178 178 l27 55 0 375 0 375 -27 55 c-35 71 -107 143 -178 178 l-55 27
-2280 2 c-2168 2 -2283 2 -2332 -15z"/>
<path d="M279 3406 c-117 -31 -217 -121 -258 -231 l-21 -56 2 -1427 3 -1427
27 -55 c35 -71 107 -143 178 -178 l55 -27 910 0 910 0 63 34 c75 41 135 103
170 179 l27 57 0 1430 0 1430 -31 65 c-53 110 -145 184 -262 209 -78 16 -1710
14 -1773 -3z"/>
<path d="M3055 3406 c-112 -28 -198 -99 -249 -206 l-31 -65 0 -470 0 -470 27
-57 c35 -76 95 -138 170 -179 l63 -34 910 0 910 0 55 27 c71 35 143 107 178
178 l27 55 0 480 0 480 -27 57 c-48 103 -147 181 -260 208 -67 15 -1709 12
-1773 -4z"/>
<path d="M3055 1486 c-112 -28 -198 -99 -249 -206 l-31 -65 0 -470 0 -470 27
-57 c35 -76 95 -138 170 -179 l63 -34 910 0 910 0 55 27 c71 35 143 107 178
178 l27 55 0 480 0 480 -27 57 c-48 103 -147 181 -260 208 -67 15 -1709 12
-1773 -4z"/>
</g>
</svg>
