<?xml version="1.0" standalone="no"?>
<!DOCTYPE svg PUBLIC "-//W3C//DTD SVG 20010904//EN"
 "http://www.w3.org/TR/2001/REC-SVG-20010904/DTD/svg10.dtd">
<svg version="1.0" xmlns="http://www.w3.org/2000/svg"
 width="512.000000pt" height="512.000000pt" viewBox="0 0 512.000000 512.000000"
 preserveAspectRatio="xMidYMid meet">
<metadata>
Created by potrace 1.16, written by Peter Selinger 2001-2019
</metadata>
<g transform="translate(0.000000,512.000000) scale(0.100000,-0.100000)"
fill="#000000" stroke="none">
<path d="M2990 4824 c-53 -23 -246 -72 -335 -84 -44 -7 -260 -15 -480 -19
-386 -8 -404 -9 -497 -34 -122 -32 -262 -97 -310 -144 -57 -55 -89 -138 -89
-227 0 -67 6 -87 63 -232 75 -185 91 -201 102 -97 12 113 53 179 141 227 39
21 47 21 575 21 528 0 536 0 575 -21 88 -48 129 -114 141 -227 6 -56 10 -67
25 -67 21 0 27 8 108 155 53 96 61 116 61 163 0 83 -36 135 -118 167 -73 29
-82 79 -27 146 67 80 115 188 115 261 0 32 -2 33 -50 12z"/>
<path d="M1620 4060 c-19 -19 -20 -33 -20 -472 0 -505 -1 -497 71 -565 66 -63
69 -63 491 -63 427 0 428 1 495 71 64 67 63 62 63 559 0 437 -1 451 -20 470
-19 19 -33 20 -540 20 -507 0 -521 -1 -540 -20z m336 -264 c28 -28 34 -42 34
-76 0 -34 -6 -48 -34 -76 -28 -28 -42 -34 -76 -34 -34 0 -48 6 -76 34 -28 28
-34 42 -34 76 0 34 6 48 34 76 28 28 42 34 76 34 34 0 48 -6 76 -34z m560 0
c28 -28 34 -42 34 -76 0 -34 -6 -48 -34 -76 -28 -28 -42 -34 -76 -34 -34 0
-48 6 -76 34 -28 28 -34 42 -34 76 0 34 6 48 34 76 28 28 42 34 76 34 34 0 48
-6 76 -34z m-196 -596 l0 -80 -160 0 -160 0 0 80 0 80 160 0 160 0 0 -80z"/>
<path d="M1300 3740 c-13 -13 -20 -33 -20 -60 0 -60 25 -80 100 -80 l60 0 0
80 0 80 -60 0 c-47 0 -64 -4 -80 -20z"/>
<path d="M2880 3680 l0 -80 60 0 c75 0 100 20 100 80 0 60 -25 80 -100 80
l-60 0 0 -80z"/>
<path d="M3192 3260 c-48 -30 -72 -75 -72 -140 0 -65 24 -110 72 -140 30 -18
51 -20 246 -20 231 0 250 4 291 56 l21 27 114 -6 c156 -7 221 -43 270 -147 21
-44 21 -57 24 -787 l3 -743 80 0 79 0 -2 778 -3 777 -29 60 c-38 77 -114 153
-191 191 -56 27 -68 29 -204 32 -139 4 -145 5 -164 28 -39 50 -60 54 -289 54
-195 0 -216 -2 -246 -20z"/>
<path d="M2000 2738 l0 -63 80 -53 80 -52 80 52 80 53 0 63 0 62 -160 0 -160
0 0 -62z"/>
<path d="M1770 2501 c-63 -26 -115 -53 -115 -59 0 -13 176 -241 185 -241 5 0
203 246 208 259 4 11 -123 90 -144 89 -10 0 -71 -22 -134 -48z"/>
<path d="M2345 2514 c-27 -19 -56 -39 -64 -43 -10 -6 12 -40 90 -139 57 -72
106 -131 109 -131 9 0 185 228 185 241 0 12 -227 108 -254 107 -9 0 -38 -16
-66 -35z"/>
<path d="M1072 2314 c-453 -91 -475 -99 -560 -184 -25 -25 -59 -74 -76 -110
l-31 -65 -3 -537 -3 -538 841 0 840 0 0 200 0 200 -474 0 c-327 0 -483 4 -506
11 -53 19 -60 51 -60 274 l0 195 80 0 80 0 0 -160 0 -160 120 0 120 0 0 154
c0 88 5 167 11 186 20 56 44 60 354 60 l275 0 0 211 0 212 -97 -122 c-97 -122
-120 -139 -166 -127 -14 3 -79 75 -171 191 -81 101 -151 186 -154 188 -4 2
-193 -33 -420 -79z"/>
<path d="M2677 2209 c-94 -118 -160 -192 -174 -195 -46 -12 -69 5 -166 127
l-97 122 0 -212 0 -211 275 0 c310 0 334 -4 354 -60 6 -19 11 -97 11 -185 l0
-152 72 -8 c112 -11 181 -55 222 -145 17 -39 21 -70 24 -227 l4 -183 237 0
237 0 11 95 c7 60 21 115 36 149 30 66 95 138 154 173 l44 25 -3 317 -3 316
-31 65 c-17 36 -52 86 -78 112 -83 84 -128 98 -556 183 -212 41 -393 77 -403
80 -13 2 -57 -45 -170 -186z"/>
<path d="M1600 1560 l0 -120 347 0 347 0 76 74 c85 83 105 91 220 84 52 -3 77
-9 100 -26 l30 -23 0 66 0 65 -560 0 -560 0 0 -120z"/>
<path d="M2440 1374 c-70 -72 -110 -94 -165 -94 l-35 0 0 -200 0 -200 400 0
400 0 0 180 c0 226 4 220 -135 220 -119 0 -142 10 -225 94 -64 66 -65 66 -120
66 -55 0 -56 0 -120 -66z"/>
<path d="M3975 1181 c-49 -23 -99 -74 -119 -123 -10 -22 -16 -67 -16 -108 l0
-70 400 0 400 0 0 70 c0 82 -17 130 -63 179 -63 66 -86 71 -337 71 -198 0
-230 -3 -265 -19z"/>
<path d="M230 480 l0 -240 2325 0 2325 0 0 240 0 240 -2325 0 -2325 0 0 -240z"/>
</g>
</svg>
