<?xml version="1.0" standalone="no"?>
<!DOCTYPE svg PUBLIC "-//W3C//DTD SVG 20010904//EN"
 "http://www.w3.org/TR/2001/REC-SVG-20010904/DTD/svg10.dtd">
<svg version="1.0" xmlns="http://www.w3.org/2000/svg"
 width="512.000000pt" height="512.000000pt" viewBox="0 0 512.000000 512.000000"
 preserveAspectRatio="xMidYMid meet">
<metadata>
Created by potrace 1.16, written by Peter Selinger 2001-2019
</metadata>
<g transform="translate(0.000000,512.000000) scale(0.100000,-0.100000)"
fill="#000000" stroke="none">
<path d="M3671 5099 c-176 -38 -338 -112 -481 -220 -41 -32 -322 -305 -624
-607 l-549 -550 164 5 c220 7 391 -17 558 -78 l54 -20 396 394 c352 350 403
397 461 425 92 44 171 62 270 62 169 0 295 -53 415 -174 132 -133 181 -260
173 -446 -6 -118 -31 -200 -91 -292 -20 -30 -288 -305 -618 -634 -539 -536
-589 -583 -652 -612 -87 -42 -174 -62 -267 -62 -151 0 -275 48 -404 155 -94
78 -147 100 -241 99 -105 -1 -146 -24 -281 -156 l-115 -113 49 -76 c158 -241
424 -422 722 -490 123 -28 339 -35 462 -15 178 29 337 92 493 194 91 59 1227
1187 1320 1311 110 145 188 326 220 505 22 130 20 334 -6 459 -91 449 -429
805 -876 924 -84 22 -123 26 -278 29 -152 3 -195 0 -274 -17z"/>
<path d="M2022 3425 c-179 -33 -360 -111 -502 -219 -52 -39 -314 -294 -676
-658 -493 -495 -601 -608 -649 -681 -69 -106 -128 -237 -163 -367 -24 -88 -26
-110 -26 -300 0 -190 2 -212 26 -300 127 -466 494 -805 959 -886 71 -12 132
-15 254 -11 184 6 288 28 442 94 191 83 218 107 840 727 315 314 573 573 573
576 0 4 -33 2 -72 -3 -174 -22 -442 8 -623 69 l-77 26 -397 -394 c-352 -351
-403 -398 -461 -426 -92 -44 -171 -62 -270 -62 -169 0 -293 52 -415 175 -123
122 -175 246 -175 415 0 99 18 178 62 270 29 59 86 120 612 649 365 366 603
598 640 622 170 112 409 121 597 23 36 -19 91 -57 121 -84 96 -85 184 -116
288 -99 78 12 138 52 250 164 l104 104 -59 88 c-174 255 -453 432 -769 488
-108 18 -331 19 -434 0z"/>
</g>
</svg>
