<?xml version="1.0" standalone="no"?>
<!DOCTYPE svg PUBLIC "-//W3C//DTD SVG 20010904//EN"
 "http://www.w3.org/TR/2001/REC-SVG-20010904/DTD/svg10.dtd">
<svg version="1.0" xmlns="http://www.w3.org/2000/svg"
 width="512.000000pt" height="512.000000pt" viewBox="0 0 512.000000 512.000000"
 preserveAspectRatio="xMidYMid meet">
<metadata>
Created by potrace 1.16, written by Peter Selinger 2001-2019
</metadata>
<g transform="translate(0.000000,512.000000) scale(0.100000,-0.100000)"
fill="#000000" stroke="none">
<path d="M1523 5102 c-97 -34 -186 -122 -224 -222 -19 -50 -19 -77 -17 -628
l3 -577 34 -63 c41 -75 103 -135 179 -170 57 -27 58 -27 359 -32 l301 -5 144
-189 c79 -105 156 -199 171 -210 37 -27 131 -29 170 -3 14 9 103 105 197 211
l171 195 277 3 c276 3 277 3 334 30 76 35 138 95 179 170 l34 63 0 590 0 590
-27 55 c-35 71 -107 143 -178 178 l-55 27 -1000 2 c-939 2 -1003 1 -1052 -15z"/>
<path d="M263 4895 c-99 -30 -178 -98 -230 -197 l-28 -53 0 -590 c0 -586 0
-590 22 -638 30 -65 115 -152 181 -184 43 -21 75 -28 148 -32 l92 -6 144 -189
c79 -105 155 -198 169 -209 15 -11 47 -21 72 -24 85 -10 100 1 292 219 163
186 176 203 159 215 -151 104 -261 261 -301 430 -16 71 -18 131 -18 633 0 384
4 568 11 598 l12 42 -342 -1 c-252 0 -352 -4 -383 -14z"/>
<path d="M4143 4868 c8 -30 12 -211 12 -598 0 -629 -1 -640 -77 -793 -32 -64
-61 -101 -127 -168 -47 -47 -97 -92 -110 -100 l-24 -15 178 -201 c192 -219
207 -230 292 -220 25 3 57 13 72 24 14 11 90 104 169 209 l144 189 92 6 c73 4
105 11 148 32 66 32 151 119 181 184 22 48 22 52 22 638 l0 590 -34 63 c-41
75 -103 135 -179 170 l-57 27 -357 3 -356 3 11 -43z"/>
<path d="M2412 2655 c-227 -51 -418 -240 -477 -470 -19 -77 -19 -243 0 -320
44 -172 176 -336 335 -413 192 -94 388 -94 580 0 161 78 292 241 336 418 24
97 15 282 -18 372 -36 96 -84 171 -154 242 -122 121 -252 177 -429 182 -72 2
-132 -1 -173 -11z"/>
<path d="M746 2339 c-65 -15 -153 -69 -206 -125 -202 -213 -133 -560 135 -686
51 -23 84 -31 148 -35 184 -12 335 74 414 235 37 75 38 78 38 191 0 109 -2
120 -31 182 -55 116 -142 192 -262 229 -68 21 -168 25 -236 9z"/>
<path d="M4129 2327 c-120 -41 -199 -112 -253 -226 -29 -62 -31 -73 -31 -182
0 -113 1 -116 38 -191 79 -161 230 -247 414 -235 369 23 537 482 268 736 -82
78 -165 113 -279 118 -76 3 -102 0 -157 -20z"/>
<path d="M433 1265 c-200 -54 -356 -209 -417 -414 -11 -38 -16 -94 -16 -186 0
-120 2 -135 22 -165 13 -18 36 -43 51 -54 28 -21 39 -21 511 -24 l483 -3 6 99
c16 244 121 465 295 622 l66 59 -58 27 c-113 52 -134 54 -526 53 -280 0 -377
-4 -417 -14z"/>
<path d="M3849 1266 c-25 -7 -72 -25 -104 -40 l-59 -27 66 -59 c174 -157 279
-378 295 -622 l6 -99 483 3 c472 3 483 3 511 24 64 47 73 75 73 213 0 210 -43
325 -170 451 -81 81 -160 127 -265 155 -78 20 -763 21 -836 1z"/>
<path d="M1832 1056 c-158 -39 -314 -163 -385 -307 -58 -119 -69 -188 -65
-435 3 -236 5 -242 78 -292 l33 -22 1067 0 1067 0 33 22 c18 13 43 36 54 51
20 27 21 40 21 275 -1 232 -2 251 -24 312 -56 160 -162 281 -303 348 -46 22
-107 45 -136 51 -80 17 -1370 13 -1440 -3z"/>
</g>
</svg>
