<?xml version="1.0" standalone="no"?>
<!DOCTYPE svg PUBLIC "-//W3C//DTD SVG 20010904//EN"
 "http://www.w3.org/TR/2001/REC-SVG-20010904/DTD/svg10.dtd">
<svg version="1.0" xmlns="http://www.w3.org/2000/svg"
 width="256.000000pt" height="256.000000pt" viewBox="0 0 256.000000 256.000000"
 preserveAspectRatio="xMidYMid meet">
<metadata>
Created by potrace 1.16, written by Peter Selinger 2001-2019
</metadata>
<g transform="translate(0.000000,256.000000) scale(0.100000,-0.100000)"
fill="#000000" stroke="none">
<path d="M160 2539 c-60 -27 -107 -74 -136 -134 l-24 -50 0 -1075 c0 -1060 1
-1076 21 -1120 27 -60 74 -107 134 -136 l50 -24 770 0 770 0 50 24 c60 29 107
76 134 136 17 38 21 66 21 184 l0 138 -26 -6 c-15 -4 -66 -7 -114 -7 -204 0
-392 110 -503 293 -101 168 -110 385 -22 558 78 155 235 280 399 319 55 13
187 17 235 6 l31 -7 0 136 0 135 -300 3 c-296 3 -300 3 -322 26 -23 22 -23 26
-26 322 l-3 300 -547 0 c-528 0 -549 -1 -592 -21z m1109 -803 c28 -25 28 -77
0 -102 -20 -18 -43 -19 -469 -19 -426 0 -449 1 -469 19 -41 37 -21 105 34 119
11 3 214 4 451 4 410 -2 433 -3 453 -21z m-200 -300 c28 -25 28 -77 0 -102
-20 -18 -41 -19 -369 -19 -328 0 -349 1 -369 19 -41 37 -21 105 34 119 11 3
169 4 351 4 311 -2 333 -3 353 -21z m0 -300 c28 -25 28 -77 0 -102 -20 -18
-41 -19 -369 -19 -328 0 -349 1 -369 19 -41 37 -21 105 34 119 11 3 169 4 351
4 311 -2 333 -3 353 -21z m0 -300 c28 -25 28 -77 0 -102 -20 -18 -41 -19 -369
-19 -328 0 -349 1 -369 19 -41 37 -21 105 34 119 11 3 169 4 351 4 311 -2 333
-3 353 -21z"/>
<path d="M1450 2290 l0 -230 232 0 233 0 -230 230 c-126 127 -231 230 -232
230 -2 0 -3 -103 -3 -230z"/>
<path d="M1675 1492 c-163 -56 -279 -194 -307 -366 -31 -188 74 -386 250 -474
68 -33 84 -37 172 -40 105 -5 181 11 253 51 l37 21 188 -187 c202 -201 213
-208 266 -166 20 16 26 29 26 62 0 40 -5 46 -182 223 l-181 183 34 73 c33 70
34 78 34 188 0 109 -2 119 -32 182 -18 38 -45 84 -60 105 -43 56 -137 120
-210 143 -83 26 -217 27 -288 2z"/>
</g>
</svg>
