<?xml version="1.0" standalone="no"?>
<!DOCTYPE svg PUBLIC "-//W3C//DTD SVG 20010904//EN"
 "http://www.w3.org/TR/2001/REC-SVG-20010904/DTD/svg10.dtd">
<svg version="1.0" xmlns="http://www.w3.org/2000/svg"
 width="512.000000pt" height="512.000000pt" viewBox="0 0 512.000000 512.000000"
 preserveAspectRatio="xMidYMid meet">
<metadata>
Created by potrace 1.16, written by Peter Selinger 2001-2019
</metadata>
<g transform="translate(0.000000,512.000000) scale(0.100000,-0.100000)"
fill="#000000" stroke="none">
<path d="M1790 4834 c-98 -17 -378 -152 -549 -264 -160 -105 -243 -187 -265
-260 -23 -76 -20 -137 9 -227 96 -290 0 -574 -246 -733 -78 -50 -148 -76 -256
-95 -250 -44 -310 -164 -320 -645 -11 -511 47 -638 316 -684 209 -36 374 -156
466 -338 78 -156 85 -315 20 -502 -46 -135 -46 -209 1 -296 65 -121 423 -355
715 -470 162 -64 301 -39 387 68 84 106 170 180 255 221 104 49 160 62 268 62
189 0 366 -84 484 -230 59 -75 109 -108 191 -128 59 -15 69 -15 131 1 177 43
551 263 699 410 101 101 118 195 65 361 -57 177 -49 321 28 479 88 180 251
300 463 340 92 18 140 41 190 93 80 83 108 211 115 533 4 183 2 236 -16 354
-22 151 -43 208 -98 262 -46 47 -97 71 -190 89 -43 9 -116 35 -163 57 -151 73
-275 221 -326 393 -28 94 -24 247 10 354 42 134 32 237 -30 319 -56 72 -283
234 -464 330 -52 28 -147 72 -210 98 -99 40 -125 47 -185 47 -102 0 -149 -24
-269 -141 -153 -148 -277 -203 -456 -203 -180 0 -304 55 -455 202 -61 60 -119
106 -146 118 -46 20 -127 32 -169 25z m965 -1504 c28 -7 95 -34 150 -60 171
-83 281 -193 365 -365 59 -123 80 -212 80 -348 0 -307 -174 -580 -455 -713
-115 -54 -207 -74 -338 -74 -301 0 -570 167 -703 435 -60 122 -84 222 -84 352
0 136 21 225 80 348 84 172 194 282 365 365 55 26 123 53 150 60 114 28 274
28 390 0z"/>
</g>
</svg>
