<?xml version="1.0" standalone="no"?>
<!DOCTYPE svg PUBLIC "-//W3C//DTD SVG 20010904//EN"
 "http://www.w3.org/TR/2001/REC-SVG-20010904/DTD/svg10.dtd">
<svg version="1.0" xmlns="http://www.w3.org/2000/svg"
 width="512.000000pt" height="512.000000pt" viewBox="0 0 512.000000 512.000000"
 preserveAspectRatio="xMidYMid meet">
<metadata>
Created by potrace 1.16, written by Peter Selinger 2001-2019
</metadata>
<g transform="translate(0.000000,512.000000) scale(0.100000,-0.100000)"
fill="#000000" stroke="none">
<path d="M730 4525 c-227 -50 -407 -232 -455 -460 -22 -105 -22 -2905 0 -3010
48 -231 229 -412 460 -460 105 -22 3545 -22 3650 0 231 48 412 229 460 460 22
104 22 2266 0 2370 -43 208 -187 370 -392 442 l-78 28 -825 5 c-884 5 -834 2
-907 56 -18 13 -88 105 -157 203 -164 234 -238 299 -396 353 -64 22 -74 23
-680 25 -500 2 -627 -1 -680 -12z m2627 -1306 c127 -47 215 -130 277 -259 29
-61 31 -71 31 -185 0 -118 -1 -121 -37 -198 -140 -293 -506 -368 -745 -152
-29 25 -62 63 -74 83 -12 20 -23 38 -25 40 -1 2 -91 -41 -199 -95 l-197 -99
-2 -113 -1 -113 199 -100 c109 -54 199 -98 200 -96 2 2 13 20 25 40 12 20 45
58 74 83 257 232 656 125 767 -206 18 -53 21 -81 18 -165 -3 -93 -6 -107 -42
-178 -148 -300 -527 -365 -761 -130 -50 50 -125 177 -125 213 0 11 -81 56
-262 147 l-263 131 -45 -28 c-144 -92 -356 -92 -499 0 -140 91 -221 236 -221
401 0 165 81 310 221 401 143 92 355 92 499 0 l45 -28 263 131 c181 91 262
136 262 147 0 9 16 48 36 88 109 219 358 322 581 240z"/>
</g>
</svg>
