<?xml version="1.0" standalone="no"?>
<!DOCTYPE svg PUBLIC "-//W3C//DTD SVG 20010904//EN"
 "http://www.w3.org/TR/2001/REC-SVG-20010904/DTD/svg10.dtd">
<svg version="1.0" xmlns="http://www.w3.org/2000/svg"
 width="512.000000pt" height="512.000000pt" viewBox="0 0 512.000000 512.000000"
 preserveAspectRatio="xMidYMid meet">
<metadata>
Created by potrace 1.16, written by Peter Selinger 2001-2019
</metadata>
<g transform="translate(0.000000,512.000000) scale(0.100000,-0.100000)"
fill="#000000" stroke="none">
<path d="M815 4344 c-234 -58 -434 -261 -490 -495 -19 -82 -19 -246 0 -328 56
-234 260 -440 490 -494 48 -12 55 -16 35 -20 -193 -44 -252 -64 -349 -118
-225 -128 -390 -333 -468 -586 l-27 -88 -4 -427 -3 -428 644 0 644 0 7 88 c18
225 90 431 217 618 65 97 198 235 289 302 41 31 76 56 78 58 7 5 -53 112 -96
174 -88 124 -182 209 -317 287 -77 45 -214 97 -285 107 -85 14 -89 18 -25 33
231 53 435 260 491 499 23 98 15 285 -15 374 -68 199 -232 363 -431 431 -85
29 -293 36 -385 13z"/>
<path d="M3965 4344 c-137 -34 -284 -132 -369 -244 -95 -128 -136 -251 -136
-415 0 -164 41 -287 136 -415 86 -113 236 -213 369 -243 64 -15 60 -19 -25
-33 -71 -10 -208 -62 -285 -107 -135 -78 -229 -163 -317 -287 -43 -62 -103
-169 -96 -174 2 -2 37 -27 78 -58 91 -67 224 -205 289 -302 127 -187 199 -393
217 -618 l7 -88 644 0 644 0 -3 428 -4 427 -27 88 c-78 253 -243 458 -468 586
-97 54 -156 74 -349 118 -20 4 -13 8 35 20 233 54 435 260 491 499 23 98 15
285 -15 374 -68 199 -232 363 -431 431 -85 29 -293 36 -385 13z"/>
<path d="M2415 3674 c-88 -19 -213 -79 -287 -139 -148 -119 -248 -331 -248
-525 0 -194 100 -406 248 -525 70 -56 197 -119 276 -136 l59 -13 -74 -12
c-345 -59 -637 -307 -754 -642 -47 -135 -55 -217 -55 -583 l0 -339 980 0 980
0 0 339 c0 366 -8 448 -55 583 -117 335 -409 583 -754 642 l-74 12 59 13 c79
17 206 80 276 136 148 119 248 331 248 525 0 141 -54 299 -144 417 -152 201
-426 300 -681 247z"/>
</g>
</svg>
