<?xml version="1.0" standalone="no"?>
<!DOCTYPE svg PUBLIC "-//W3C//DTD SVG 20010904//EN"
 "http://www.w3.org/TR/2001/REC-SVG-20010904/DTD/svg10.dtd">
<svg version="1.0" xmlns="http://www.w3.org/2000/svg"
 width="512.000000pt" height="512.000000pt" viewBox="0 0 512.000000 512.000000"
 preserveAspectRatio="xMidYMid meet">
<metadata>
Created by potrace 1.16, written by Peter Selinger 2001-2019
</metadata>
<g transform="translate(0.000000,512.000000) scale(0.100000,-0.100000)"
fill="#000000" stroke="none">
<path d="M246 5035 c-21 -7 -54 -28 -72 -46 -69 -67 -65 57 -62 -1711 l3
-1596 30 -44 c18 -25 49 -52 75 -65 42 -22 55 -23 281 -23 208 0 243 2 292 19
83 29 209 45 302 38 l82 -6 121 122 c67 67 122 126 122 130 0 4 -225 7 -500 7
l-500 0 0 1290 0 1290 2140 0 2140 0 0 -1290 0 -1290 -928 0 -927 0 -155 -155
-155 -155 1161 0 1160 0 44 22 c26 14 57 41 75 66 l30 44 3 1596 c3 1782 8
1647 -68 1716 -21 19 -56 39 -77 45 -26 8 -737 11 -2308 11 -1905 -1 -2276 -3
-2309 -15z m3882 -241 c48 -54 10 -134 -63 -134 -69 0 -108 73 -69 128 33 48
92 50 132 6z m270 4 c50 -48 11 -138 -61 -138 -57 0 -99 63 -75 115 25 55 89
66 136 23z m247 20 c27 -12 55 -54 55 -82 0 -8 -12 -28 -26 -45 -67 -80 -188
12 -128 97 14 21 45 39 66 41 4 1 19 -4 33 -11z"/>
<path d="M3385 3954 c-205 -51 -389 -211 -474 -412 -46 -109 -62 -260 -40
-377 l11 -58 -833 -833 c-828 -828 -832 -832 -863 -823 -17 5 -79 9 -137 9
-205 0 -347 -58 -490 -200 -74 -72 -93 -99 -132 -180 -50 -106 -64 -157 -73
-262 -6 -65 9 -214 22 -227 2 -3 69 59 147 136 l142 142 210 -26 c116 -15 212
-28 214 -30 3 -2 17 -99 32 -216 l27 -212 -141 -142 c-78 -78 -139 -144 -136
-147 2 -3 44 -10 92 -16 322 -43 632 149 740 459 25 71 31 106 35 201 2 63 -1
134 -6 156 l-9 42 831 831 831 831 88 -11 c392 -51 754 247 775 637 5 97 -3
190 -18 214 -8 12 -38 -13 -148 -123 l-139 -139 -214 27 c-118 15 -215 28
-216 29 -1 1 -14 98 -29 215 l-27 213 139 139 c110 110 136 141 126 151 -19
19 -262 21 -337 2z"/>
</g>
</svg>
