<?xml version="1.0" standalone="no"?>
<!DOCTYPE svg PUBLIC "-//W3C//DTD SVG 20010904//EN"
 "http://www.w3.org/TR/2001/REC-SVG-20010904/DTD/svg10.dtd">
<svg version="1.0" xmlns="http://www.w3.org/2000/svg"
 width="2478.000000pt" height="869.000000pt" viewBox="0 0 2478.000000 869.000000"
 preserveAspectRatio="xMidYMid meet">
<metadata>
Created by potrace 1.16, written by Peter Selinger 2001-2019
</metadata>
<g transform="translate(0.000000,869.000000) scale(0.100000,-0.100000)"
fill="#000000" stroke="none">
<path d="M4070 8639 c-1345 -80 -2580 -791 -3324 -1914 -135 -204 -184 -288
-288 -499 -221 -452 -357 -928 -414 -1456 -23 -211 -23 -657 0 -868 108 -993
519 -1871 1201 -2571 700 -718 1597 -1158 2605 -1277 186 -21 598 -29 790 -15
1214 92 2303 664 3058 1606 513 641 819 1380 919 2223 25 211 25 737 -1 947
-105 873 -428 1625 -987 2300 -188 227 -506 523 -759 706 -815 592 -1793 878
-2800 818z m750 -104 c667 -82 1275 -303 1822 -660 410 -269 779 -615 1075
-1010 1092 -1456 1121 -3476 69 -4960 -264 -374 -647 -757 -1021 -1021 -925
-656 -2094 -910 -3215 -698 -701 132 -1365 444 -1914 899 -765 636 -1291 1534
-1460 2495 -54 307 -60 383 -61 750 0 371 10 490 61 770 84 456 254 924 479
1320 202 356 492 721 803 1012 219 205 541 441 799 587 534 301 1146 485 1778
535 128 10 656 -3 785 -19z"/>
<path d="M4192 8314 c-26 -18 -52 -65 -52 -94 0 -45 33 -90 106 -146 40 -31
80 -67 89 -80 39 -60 -1 -134 -72 -134 -29 0 -45 8 -73 35 -25 24 -42 34 -53
29 -23 -8 -21 -17 9 -54 75 -89 198 -77 248 24 34 70 -2 137 -118 220 -75 54
-98 94 -75 135 21 38 85 42 123 6 31 -29 39 -30 54 -12 15 17 -8 52 -48 72
-38 20 -110 19 -138 -1z"/>
<path d="M3834 8299 c-68 -19 -101 -96 -70 -161 12 -25 42 -51 107 -93 101
-65 119 -85 119 -131 0 -39 -48 -84 -88 -84 -28 0 -74 26 -95 53 -11 14 -14
14 -31 2 -19 -15 -19 -16 14 -50 68 -70 158 -69 219 0 26 30 31 44 31 85 0 62
-34 104 -131 160 -102 60 -129 104 -91 148 28 34 63 37 106 7 35 -24 40 -25
54 -11 14 14 14 18 -8 41 -13 14 -40 29 -59 35 -41 11 -36 11 -77 -1z"/>
<path d="M4532 8128 c-7 -101 -15 -213 -19 -250 l-6 -68 27 0 c22 0 26 5 26
28 0 15 7 117 15 227 19 260 20 245 -8 245 -23 0 -24 -2 -35 -182z"/>
<path d="M4844 8257 c-131 -63 -190 -228 -125 -355 26 -51 99 -115 149 -130
62 -19 150 -15 198 8 127 62 189 231 128 352 -44 89 -124 139 -229 145 -59 3
-78 0 -121 -20z m205 -46 c175 -90 151 -343 -37 -397 -99 -29 -200 16 -247
109 -71 143 28 305 188 307 38 0 71 -7 96 -19z"/>
<path d="M3468 8222 c-65 -14 -118 -28 -118 -32 0 -16 99 -473 104 -477 2 -3
66 8 140 23 127 26 136 29 130 48 -4 12 -8 22 -9 24 -1 1 -52 -8 -113 -21
-101 -22 -112 -23 -116 -8 -12 45 -37 173 -34 176 1 2 53 14 113 27 97 21 110
26 107 43 -2 11 -5 21 -7 23 -1 1 -52 -8 -114 -21 l-111 -23 -10 35 c-5 20
-12 55 -16 78 l-6 41 78 17 c149 32 153 33 147 55 -7 25 -16 24 -165 -8z"/>
<path d="M5349 7938 c-61 -189 -73 -235 -62 -241 8 -5 20 -7 26 -4 7 3 37 82
66 176 30 94 58 168 62 164 4 -5 46 -100 94 -213 48 -113 92 -214 98 -225 9
-17 24 20 88 220 43 131 77 240 76 241 -1 1 -11 4 -23 8 -19 6 -25 -8 -79
-175 -35 -108 -61 -175 -66 -167 -4 7 -48 111 -99 231 -51 119 -95 217 -99
217 -4 0 -41 -105 -82 -232z"/>
<path d="M3095 8122 c-60 -19 -112 -37 -114 -38 -6 -5 150 -474 158 -474 40 0
40 10 0 127 -21 64 -38 117 -36 118 1 1 42 16 91 32 92 30 102 38 87 62 -7 11
-25 8 -100 -17 -66 -22 -93 -27 -96 -19 -30 81 -44 132 -38 138 5 3 46 19 93
34 47 15 86 28 87 29 5 4 -10 46 -16 45 -3 -1 -55 -17 -116 -37z"/>
<path d="M2625 7941 c-85 -22 -161 -85 -192 -160 -9 -20 -15 -64 -15 -98 -1
-228 258 -345 432 -196 173 148 81 434 -146 457 -27 3 -62 1 -79 -3z m158 -73
c113 -63 143 -220 61 -317 -48 -55 -100 -81 -165 -81 -187 0 -282 218 -156
355 23 26 60 53 82 61 52 19 124 11 178 -18z"/>
<path d="M5964 7742 c-104 -81 -202 -157 -218 -169 l-28 -22 25 -12 c23 -10
32 -6 97 44 l71 56 95 -47 94 -47 0 -97 c0 -89 2 -97 21 -103 11 -4 22 -5 24
-3 6 6 20 540 15 543 -3 2 -91 -62 -196 -143z m141 -140 c-8 -8 -146 60 -143
70 2 5 35 33 73 63 l70 54 3 -91 c1 -50 0 -93 -3 -96z"/>
<path d="M6456 7678 c-8 -13 -67 -106 -130 -208 -134 -212 -135 -179 5 -264
77 -47 82 -49 95 -31 12 17 7 22 -67 68 -49 30 -78 54 -75 62 2 7 54 93 115
190 61 97 111 180 111 185 0 7 -23 20 -36 20 -2 0 -10 -10 -18 -22z"/>
<path d="M2122 7639 c-25 -10 -172 -109 -172 -116 0 -6 260 -376 276 -393 12
-12 16 -12 29 1 14 13 8 25 -50 109 -51 74 -62 96 -51 102 12 7 124 -23 267
-71 19 -7 32 -4 49 9 24 18 23 18 -96 55 -65 20 -127 39 -137 41 -15 5 -12 12
22 50 35 37 41 50 41 87 0 98 -90 162 -178 126z m103 -64 c17 -16 25 -35 25
-58 0 -35 -25 -64 -101 -120 l-36 -27 -46 68 c-26 37 -47 71 -47 75 0 4 28 25
62 47 71 47 108 51 143 15z"/>
<path d="M4180 7584 c-429 -29 -775 -109 -1136 -264 -744 -319 -1359 -931
-1689 -1680 -63 -141 -158 -429 -189 -572 -150 -676 -93 -1350 169 -1988 57
-139 194 -392 290 -535 532 -798 1335 -1298 2298 -1432 155 -22 621 -24 777
-5 476 60 907 207 1304 444 362 217 705 531 958 878 562 772 753 1760 522
2695 -142 573 -434 1086 -859 1510 -269 269 -544 464 -887 630 -426 205 -847
306 -1328 318 -96 3 -200 3 -230 1z m610 -113 c74 -12 160 -27 191 -34 l56
-12 -1507 -2618 c-829 -1440 -1510 -2620 -1513 -2623 -6 -6 -144 155 -220 256
l-56 76 637 2352 636 2352 121 49 c272 111 575 187 875 220 47 5 211 8 365 6
226 -2 306 -7 415 -24z m1329 -520 c273 -184 547 -448 759 -731 110 -148 196
-290 294 -488 77 -156 89 -185 77 -196 -17 -16 -4818 -3688 -4837 -3700 -14
-8 -109 64 -214 163 l-60 56 1927 2460 c1921 2453 1955 2495 1962 2495 2 0 44
-27 92 -59z m-4294 -2267 c-129 -1017 -239 -1862 -243 -1879 -8 -28 -14 -20
-90 135 -173 353 -273 706 -313 1104 -17 173 -7 584 19 751 83 532 283 1016
594 1432 85 114 258 316 265 309 2 -2 -102 -836 -232 -1852z m5671 -409 c-8
-303 -45 -551 -122 -817 -89 -310 -240 -633 -418 -893 l-61 -89 -1933 -510
c-1846 -486 -1936 -509 -1970 -497 -78 28 -432 232 -432 249 0 4 1108 635
2463 1404 2310 1310 2463 1395 2471 1375 4 -12 6 -112 2 -222z m-1636 -2710
c0 -10 -221 -115 -355 -168 -577 -230 -1188 -284 -1805 -162 -248 49 -248 47
20 79 129 16 649 79 1155 141 906 111 985 120 985 110z"/>
<path d="M1729 7340 c-24 -16 -65 -49 -91 -72 l-47 -43 156 -185 c86 -102 159
-186 162 -188 4 -1 14 3 24 10 15 12 9 22 -57 102 l-74 88 68 67 c80 77 94
114 64 176 -37 78 -127 98 -205 45z m130 -30 c30 -16 46 -65 31 -99 -12 -29
-99 -111 -118 -111 -6 0 -34 28 -63 61 l-53 61 35 30 c77 66 124 82 168 58z"/>
<path d="M7304 6784 c-198 -160 -223 -192 -211 -271 19 -117 143 -177 244
-118 50 28 293 223 293 235 0 4 -7 13 -15 20 -12 10 -37 -6 -142 -92 -166
-136 -170 -138 -218 -138 -66 0 -115 51 -115 118 0 41 26 70 171 188 71 58
131 110 135 115 3 6 0 17 -8 25 -12 12 -30 1 -134 -82z"/>
<path d="M7527 6324 c-196 -113 -216 -128 -207 -145 6 -10 14 -19 18 -19 4 0
77 41 162 90 85 49 156 87 158 86 2 -2 -33 -109 -77 -237 -44 -128 -79 -235
-77 -236 4 -4 406 225 424 241 10 10 10 15 0 29 -12 15 -28 8 -171 -74 -87
-50 -160 -89 -163 -87 -2 3 32 110 76 238 44 129 79 235 77 236 -2 2 -101 -53
-220 -122z"/>
<path d="M794 6206 c-4 -19 8 -46 56 -121 35 -53 61 -98 59 -100 -2 -2 -54 -9
-114 -15 -91 -10 -113 -16 -129 -34 -18 -21 -18 -21 2 -24 12 -2 80 4 152 12
l131 15 110 -51 c91 -43 112 -49 120 -37 5 8 9 17 9 21 0 4 -48 30 -107 58
l-108 51 -80 124 c-44 69 -83 125 -87 125 -4 0 -10 -11 -14 -24z"/>
<path d="M7785 5857 c-120 -56 -220 -107 -222 -112 -1 -6 1 -16 6 -24 8 -12
51 5 230 89 122 57 221 108 221 114 -1 39 -20 33 -235 -67z"/>
<path d="M7880 5619 c-107 -97 -196 -181 -197 -186 -2 -5 96 -17 224 -27 126
-9 248 -20 272 -23 42 -5 43 -5 36 18 -4 13 -9 25 -10 27 -1 1 -95 10 -209 19
-113 9 -206 19 -205 22 0 3 68 66 150 140 82 74 149 141 149 150 -1 45 -24 29
-210 -140z"/>
<path d="M1027 5628 c-8 -18 -22 -57 -32 -85 -11 -29 -22 -53 -27 -53 -4 0
-98 34 -209 75 -111 42 -206 72 -210 68 -25 -26 -5 -37 218 -122 l232 -89 21
54 c11 30 29 79 41 109 11 30 18 59 14 65 -12 20 -35 9 -48 -22z"/>
<path d="M451 5330 c-20 -77 -30 -134 -25 -139 5 -5 99 -31 209 -60 110 -28
214 -55 231 -60 l31 -9 36 136 c20 75 35 137 34 138 -1 1 -12 4 -23 8 -20 6
-23 0 -44 -86 -13 -51 -26 -102 -31 -114 l-7 -21 -95 25 -94 24 28 111 c28
111 27 126 -6 127 -6 0 -23 -49 -39 -110 -19 -73 -33 -110 -43 -110 -7 0 -40
7 -73 17 -41 11 -60 21 -60 32 0 9 11 59 25 111 30 116 30 110 2 110 -21 0
-26 -11 -56 -130z"/>
<path d="M8002 5182 c-142 -28 -231 -50 -229 -56 3 -6 15 -68 28 -138 20 -104
27 -128 41 -128 29 0 30 17 8 126 -12 58 -20 108 -18 110 5 5 158 34 178 34
11 0 20 -27 35 -107 18 -97 22 -108 43 -111 27 -4 27 -3 2 127 -11 58 -19 105
-17 106 5 4 122 25 138 25 13 0 21 -21 37 -111 12 -62 23 -113 25 -116 2 -2
13 0 24 4 20 8 20 9 -6 143 -19 98 -30 135 -41 136 -8 1 -120 -19 -248 -44z"/>
<path d="M380 5017 c0 -20 27 -41 174 -133 96 -60 172 -112 168 -115 -4 -4
-90 -28 -192 -54 -102 -26 -191 -52 -197 -58 -18 -14 -17 -51 1 -44 8 3 122
34 253 67 131 34 244 65 251 69 8 4 -71 59 -210 147 -123 76 -229 140 -235
142 -8 2 -13 -6 -13 -21z"/>
<path d="M8082 4784 c-133 -11 -244 -23 -247 -25 -2 -3 -2 -14 1 -25 5 -18 11
-19 77 -12 112 11 157 10 157 -4 0 -7 -47 -58 -106 -113 -93 -87 -106 -104
-103 -128 4 -28 7 -26 109 69 l104 97 12 -48 c15 -57 46 -92 95 -106 48 -15
99 2 134 42 23 28 25 37 24 127 -1 53 -4 108 -8 122 l-6 25 -243 -21z m213
-103 c5 -50 3 -77 -7 -98 -17 -37 -60 -57 -95 -46 -44 15 -63 51 -70 130 l-6
72 39 4 c21 2 60 4 85 5 l47 2 7 -69z"/>
<path d="M477 4456 c-135 -50 -205 -201 -158 -340 18 -53 86 -125 140 -149
107 -47 249 -11 316 82 98 134 56 318 -90 393 -51 27 -156 34 -208 14z m171
-52 c153 -63 179 -273 45 -368 -52 -36 -113 -48 -178 -34 -90 19 -165 116
-165 213 0 71 68 165 140 194 38 15 116 13 158 -5z"/>
<path d="M7906 4359 c-38 -30 -56 -71 -56 -130 0 -47 4 -55 40 -91 39 -40 41
-40 97 -36 l58 5 90 97 c97 104 124 117 165 76 30 -30 26 -76 -10 -112 -27
-26 -29 -32 -17 -49 14 -19 14 -19 41 2 102 80 57 229 -71 229 -35 0 -45 -8
-133 -100 -108 -112 -133 -122 -187 -76 -22 19 -28 32 -28 66 0 37 6 47 39 76
58 50 32 90 -28 43z"/>
<path d="M7850 3977 c0 -23 1 -23 193 -35 105 -7 215 -15 244 -18 46 -6 52 -4
58 16 4 12 5 23 3 25 -3 3 -428 35 -470 35 -23 0 -28 -5 -28 -23z"/>
<path d="M811 3881 c-11 -7 -11 -23 -1 -95 7 -48 10 -89 7 -92 -2 -3 -102 -19
-221 -37 -209 -30 -216 -32 -216 -54 0 -13 6 -23 14 -23 13 0 381 53 452 65
l30 5 -17 118 c-10 64 -18 118 -18 120 -2 5 -16 1 -30 -7z"/>
<path d="M8276 3750 c-4 -27 -12 -50 -18 -50 -6 0 -105 16 -220 36 -115 20
-210 35 -212 33 -2 -2 -6 -13 -8 -23 -4 -23 -17 -19 254 -66 l186 -33 -6 -36
c-10 -64 -8 -76 13 -79 19 -3 22 7 39 105 10 59 20 120 23 136 5 24 2 27 -19
27 -23 0 -26 -5 -32 -50z"/>
<path d="M8118 3405 l-138 -42 -106 29 c-108 30 -138 31 -132 2 2 -12 34 -25
113 -46 l110 -28 107 -112 c103 -109 107 -112 113 -85 6 24 -2 37 -73 114 -51
55 -76 90 -69 94 7 4 55 19 107 34 91 26 120 43 120 72 0 17 8 18 -152 -32z"/>
<path d="M1140 2393 c-133 -47 -149 -212 -27 -274 130 -67 263 83 185 209 -31
50 -109 82 -158 65z"/>
<path d="M7391 2378 c-62 -32 -85 -66 -85 -128 0 -118 129 -187 227 -120 88
60 86 175 -4 242 -40 30 -88 32 -138 6z"/>
<path d="M1782 1607 c-152 -177 -163 -192 -145 -204 20 -15 31 -5 130 111 l41
49 50 -41 c90 -76 147 -90 208 -53 32 20 64 74 64 111 0 43 -46 99 -160 197
l-25 21 -163 -191z m288 3 c15 -35 -1 -84 -31 -100 -45 -24 -87 -9 -163 58
l-37 32 56 65 57 65 53 -45 c29 -25 58 -59 65 -75z"/>
<path d="M6387 1536 c-16 -13 -14 -17 31 -50 128 -94 250 -259 304 -413 18
-48 33 -90 35 -92 1 -2 10 2 19 9 22 19 12 66 -42 179 -64 137 -175 275 -288
359 -33 26 -35 26 -59 8z"/>
<path d="M2143 1393 c-134 -207 -140 -222 -102 -300 38 -78 145 -117 217 -79
41 21 71 58 170 207 67 101 88 139 79 148 -6 6 -16 11 -23 11 -6 0 -57 -69
-114 -154 -116 -176 -142 -198 -211 -177 -60 18 -99 80 -85 135 3 14 51 93
106 176 81 122 99 155 89 166 -6 8 -15 14 -20 14 -5 0 -53 -66 -106 -147z"/>
<path d="M6120 1326 c0 -27 40 -469 46 -504 4 -29 7 -31 26 -21 19 10 20 16
14 104 l-7 93 93 55 93 55 73 -50 c67 -45 77 -49 99 -39 14 7 24 13 22 15 -16
14 -435 299 -445 303 -8 3 -14 -1 -14 -11z m208 -180 c9 -9 -4 -21 -60 -53
l-73 -42 -7 52 c-3 29 -6 74 -7 100 l-1 49 68 -48 c37 -26 73 -52 80 -58z"/>
<path d="M2515 1103 c-60 -114 -112 -213 -117 -220 -6 -8 -2 -16 13 -24 28
-14 16 -31 121 171 45 85 83 150 84 145 1 -6 28 -117 60 -248 31 -131 60 -235
65 -230 4 4 58 104 119 222 111 212 118 231 75 231 -5 0 -48 -74 -95 -165 -47
-91 -87 -159 -91 -152 -4 7 -30 113 -60 237 -29 124 -56 229 -60 233 -4 5 -55
-85 -114 -200z"/>
<path d="M5816 1192 c-4 -7 186 -437 199 -450 3 -3 14 -1 25 4 18 8 13 22 -82
232 -77 169 -105 222 -119 222 -10 0 -20 -4 -23 -8z"/>
<path d="M5493 1061 c-105 -30 -155 -52 -149 -66 2 -7 39 -111 82 -231 42
-121 78 -221 80 -223 4 -5 166 55 213 78 102 53 144 163 105 278 -26 76 -67
128 -126 157 -62 31 -115 33 -205 7z m170 -45 c43 -17 101 -85 115 -135 37
-121 -15 -202 -162 -256 -42 -15 -78 -26 -80 -24 -13 13 -135 374 -129 380 16
15 140 48 181 48 23 1 57 -5 75 -13z"/>
<path d="M3195 1048 c-3 -7 -28 -87 -56 -178 -60 -192 -71 -218 -104 -230 -33
-13 -65 1 -99 41 -25 30 -28 31 -44 16 -15 -16 -15 -19 4 -43 27 -37 81 -64
127 -64 68 0 87 31 156 247 34 104 61 194 61 200 0 6 -7 14 -16 17 -22 8 -24
8 -29 -6z"/>
<path d="M5206 972 c-2 -4 11 -84 30 -177 19 -94 33 -175 32 -181 -2 -7 -90
55 -197 137 -106 82 -197 149 -201 149 -6 0 19 -136 80 -436 10 -47 13 -51 35
-46 14 2 25 6 25 8 0 2 -16 80 -36 174 -19 94 -34 175 -32 180 2 5 91 -59 198
-141 107 -82 196 -145 198 -140 2 5 -18 116 -44 245 -40 203 -49 236 -65 236
-10 0 -20 -3 -23 -8z"/>
<path d="M3383 746 c-95 -118 -169 -217 -166 -220 21 -21 52 -1 103 64 30 39
59 69 65 67 5 -2 53 -15 107 -27 l96 -24 17 -87 c14 -70 21 -90 37 -95 11 -3
22 -3 25 -1 6 7 -96 519 -106 530 -4 4 -84 -89 -178 -207z m175 2 c10 -49 15
-88 9 -88 -9 0 -122 27 -145 35 -9 3 8 31 49 82 35 42 64 72 66 67 1 -5 11
-48 21 -96z"/>
<path d="M3860 894 c0 -5 -14 -114 -31 -242 -17 -128 -29 -235 -26 -238 7 -7
118 -24 160 -24 54 0 103 26 128 67 17 27 20 45 16 86 -4 44 -10 56 -39 81
l-34 28 33 33 c27 27 33 41 33 78 0 52 -27 93 -75 113 -40 16 -165 30 -165 18z
m160 -73 c37 -27 39 -79 5 -111 -22 -21 -36 -25 -81 -24 -30 1 -56 3 -58 5 -2
2 1 39 7 83 l10 78 46 -6 c25 -3 57 -14 71 -25z m-26 -203 c75 -38 90 -106 34
-153 -30 -25 -37 -27 -101 -22 -37 2 -70 6 -72 9 -2 2 1 46 8 97 l11 93 50 -7
c27 -3 59 -11 70 -17z"/>
<path d="M4531 867 c-54 -163 -54 -385 1 -559 19 -62 23 -68 48 -68 l28 0 -18
49 c-64 166 -66 401 -6 589 6 19 4 22 -18 22 -19 0 -27 -7 -35 -33z"/>
<path d="M4721 868 c1 -72 37 -469 42 -474 3 -4 13 -4 22 -1 19 8 19 39 0 267
-8 96 -15 187 -15 203 0 22 -4 27 -25 27 -19 0 -25 -5 -24 -22z"/>
<path d="M10042 8577 l-22 -23 0 -1196 c0 -1145 1 -1196 18 -1211 17 -16 116
-17 1219 -17 1150 0 1201 1 1216 18 16 17 17 116 17 1214 l0 1195 -23 21 -23
22 -1190 0 -1191 0 -21 -23z m2358 -1217 l0 -1150 -1145 0 -1145 0 0 1150 0
1150 1145 0 1145 0 0 -1150z"/>
<path d="M10650 7405 l0 -825 488 2 487 3 0 90 0 90 -367 3 -368 2 -2 728 -3
727 -117 3 -118 3 0 -826z"/>
<path d="M13392 8250 c-329 -59 -573 -322 -637 -687 -21 -122 -19 -336 4 -448
80 -387 339 -626 706 -651 338 -23 631 147 770 448 97 211 119 514 55 763 -26
102 -96 243 -159 321 -88 108 -233 201 -376 240 -71 19 -286 27 -363 14z m240
-191 c200 -42 353 -207 420 -454 32 -119 32 -364 -1 -485 -71 -266 -231 -429
-450 -460 -78 -11 -164 -2 -242 25 -158 56 -293 225 -351 440 -32 122 -30 344
5 477 53 201 159 347 301 414 109 52 210 66 318 43z"/>
<path d="M14530 8223 c0 -4 128 -395 283 -868 l283 -860 129 0 130 0 302 845
c167 465 306 855 309 868 6 22 6 22 -119 22 l-124 0 -199 -582 c-109 -319
-219 -654 -244 -743 l-46 -163 -27 109 c-36 141 -134 464 -294 969 l-128 405
-128 3 c-70 1 -127 -1 -127 -5z"/>
<path d="M16260 7360 l0 -870 490 0 490 0 0 100 0 100 -375 0 -375 0 0 305 0
305 335 0 335 0 0 100 0 100 -335 0 -335 0 0 265 0 265 355 0 355 0 0 100 0
100 -470 0 -470 0 0 -870z"/>
<path d="M17630 7360 l0 -870 485 0 485 0 0 100 0 100 -370 0 -370 0 0 770 0
770 -115 0 -115 0 0 -870z"/>
<path d="M18589 8193 c10 -21 134 -247 275 -502 l256 -464 0 -369 0 -368 120
0 120 0 0 371 0 371 283 486 c155 267 283 492 285 499 3 10 -24 13 -126 13
l-129 0 -195 -377 c-107 -208 -201 -393 -209 -412 l-15 -34 -206 409 -205 409
-137 3 -137 3 20 -38z"/>
<path d="M10042 5657 l-22 -23 0 -1196 c0 -1145 1 -1196 18 -1211 17 -16 116
-17 1219 -17 1150 0 1201 1 1216 18 16 17 17 116 17 1214 l0 1195 -23 21 -23
22 -1190 0 -1191 0 -21 -23z m2358 -1217 l0 -1150 -1145 0 -1145 0 0 1150 0
1150 1145 0 1145 0 0 -1150z"/>
<path d="M10905 5310 c-60 -4 -140 -11 -177 -15 l-68 -7 0 -814 0 -814 115 0
115 0 0 323 0 322 173 1 c156 1 180 3 260 28 205 62 322 161 376 319 45 131
37 270 -24 394 -76 155 -229 240 -473 263 -115 11 -129 11 -297 0z m334 -186
c138 -31 227 -113 251 -231 41 -194 -73 -358 -278 -402 -57 -12 -239 -15 -291
-5 l-31 7 0 318 0 318 33 4 c85 10 253 6 316 -9z"/>
<path d="M14419 5350 c-138 -22 -234 -73 -339 -179 -87 -89 -130 -158 -176
-279 -58 -154 -69 -232 -68 -462 1 -188 3 -213 27 -305 15 -55 50 -147 78
-204 93 -188 250 -317 426 -351 90 -18 243 -8 323 19 242 84 408 311 465 635
20 116 20 365 0 482 -57 331 -236 566 -480 628 -80 20 -187 27 -256 16z m244
-225 c115 -57 207 -187 264 -372 26 -84 27 -98 27 -293 0 -180 -3 -215 -22
-284 -53 -190 -156 -337 -279 -393 -49 -23 -71 -28 -148 -28 -65 0 -103 5
-135 18 -141 58 -245 198 -302 409 -20 72 -22 107 -23 268 0 215 18 307 85
446 61 126 136 200 248 245 73 30 208 22 285 -16z"/>
<path d="M20282 5349 c-199 -30 -372 -167 -473 -374 -77 -158 -100 -263 -106
-485 -6 -210 7 -315 57 -458 66 -191 171 -322 326 -409 77 -42 165 -63 271
-63 183 0 304 50 434 180 75 75 94 100 137 191 89 182 118 340 109 594 -6 174
-22 267 -68 385 -44 114 -97 198 -175 275 -133 134 -320 193 -512 164z m256
-229 c175 -94 280 -317 290 -620 11 -363 -114 -639 -328 -727 -32 -13 -71 -18
-135 -18 -79 0 -97 4 -150 29 -121 59 -215 188 -271 371 -27 86 -28 100 -28
295 0 181 2 214 22 285 47 171 139 313 239 372 78 45 112 53 208 50 80 -3 97
-7 153 -37z"/>
<path d="M17620 5336 c-132 -38 -229 -120 -288 -244 l-37 -77 0 -135 c0 -131
1 -137 32 -202 58 -123 155 -206 346 -297 180 -87 248 -158 269 -283 23 -136
-30 -248 -145 -307 -61 -32 -73 -34 -154 -33 -104 0 -190 24 -277 77 -32 19
-60 34 -61 33 -5 -8 -45 -175 -45 -189 0 -19 72 -60 160 -89 81 -27 268 -38
353 -21 137 29 263 124 321 244 72 145 72 357 1 496 -54 107 -144 181 -343
280 -196 98 -262 176 -262 311 0 109 56 198 148 237 87 36 235 22 343 -33 28
-14 53 -23 55 -21 2 2 16 44 30 92 l26 89 -24 17 c-12 10 -52 28 -88 40 -81
27 -288 36 -360 15z"/>
<path d="M18610 5332 c-130 -44 -214 -113 -268 -222 -41 -82 -55 -156 -50
-264 11 -209 109 -330 373 -460 148 -74 214 -125 252 -200 23 -43 27 -64 28
-136 0 -74 -4 -93 -28 -142 -52 -106 -139 -152 -282 -151 -95 2 -185 27 -268
77 -38 23 -59 31 -62 23 -14 -44 -45 -166 -45 -180 0 -22 105 -72 204 -97 97
-24 246 -27 331 -5 236 62 370 265 352 534 -14 216 -103 329 -368 466 -220
114 -276 173 -286 300 -20 240 216 356 476 235 44 -21 67 -27 71 -19 4 6 17
48 30 92 l22 81 -22 18 c-72 58 -345 88 -460 50z"/>
<path d="M12990 5329 c-47 -5 -105 -12 -130 -17 l-45 -8 -3 -862 -2 -862 100
0 100 0 0 375 0 375 118 0 c102 0 124 -3 168 -24 100 -46 137 -119 185 -364
34 -174 64 -305 79 -339 9 -22 15 -23 110 -23 55 0 100 3 100 8 0 4 -9 35 -20
70 -11 35 -40 163 -65 284 -62 297 -100 385 -195 449 l-40 27 52 30 c147 82
230 262 215 462 -12 150 -75 271 -179 340 -121 80 -289 105 -548 79z m365
-207 c65 -30 108 -73 137 -136 19 -42 23 -68 23 -146 0 -119 -24 -179 -96
-244 -68 -61 -119 -77 -276 -83 l-133 -6 0 316 0 316 23 4 c12 3 78 4 147 3
106 -1 133 -5 175 -24z"/>
<path d="M15340 4455 l0 -875 100 0 100 0 0 395 0 395 275 0 275 0 0 95 0 95
-275 0 -275 0 0 285 0 285 300 0 300 0 0 100 0 100 -400 0 -400 0 0 -875z"/>
<path d="M16330 4455 l0 -875 415 0 415 0 0 100 0 100 -315 0 -315 0 0 310 0
310 285 0 285 0 0 95 0 95 -285 0 -285 0 0 270 0 270 300 0 300 0 0 100 0 100
-400 0 -400 0 0 -875z"/>
<path d="M19330 4455 l0 -875 100 0 100 0 0 875 0 875 -100 0 -100 0 0 -875z"/>
<path d="M21210 4455 l0 -875 96 0 97 0 -5 716 -5 715 37 -88 c65 -155 172
-367 433 -858 l255 -480 101 -3 101 -3 0 876 0 875 -96 0 -96 0 6 -667 c3
-368 8 -688 11 -713 5 -43 4 -42 -26 30 -60 147 -174 372 -432 857 l-262 493
-107 0 -108 0 0 -875z"/>
<path d="M22951 5298 c-24 -73 -491 -1700 -491 -1709 0 -6 39 -9 102 -7 l102
3 75 272 76 273 256 0 255 0 78 -275 79 -275 104 0 105 0 -6 33 c-4 17 -116
410 -250 872 l-242 840 -116 3 -116 3 -11 -33z m164 -385 c24 -92 72 -266 107
-385 l65 -218 -214 0 c-117 0 -213 2 -213 5 0 3 36 130 79 283 44 154 90 327
103 385 13 58 25 104 27 101 2 -2 23 -79 46 -171z"/>
<path d="M23830 4455 l0 -875 410 0 410 0 0 100 0 100 -310 0 -310 0 0 775 0
775 -100 0 -100 0 0 -875z"/>
<path d="M10037 2732 c-16 -17 -17 -116 -17 -1214 l0 -1195 23 -21 23 -22
1190 0 1191 0 21 23 22 23 0 1196 c0 1145 -1 1196 -18 1211 -17 16 -116 17
-1219 17 -1150 0 -1201 -1 -1216 -18z m2363 -1212 l0 -1150 -1145 0 -1145 0 0
1150 0 1150 1145 0 1145 0 0 -1150z"/>
<path d="M10653 1813 c4 -546 5 -571 26 -653 57 -220 165 -345 360 -418 88
-33 306 -42 421 -18 173 36 321 148 393 296 79 162 89 264 85 885 l-3 470
-117 3 -118 3 0 -548 c0 -602 -3 -629 -60 -742 -59 -118 -153 -183 -286 -200
-217 -27 -368 67 -437 272 -21 60 -22 84 -27 637 l-5 575 -118 3 -119 3 5
-568z"/>
<path d="M20288 2440 c-200 -36 -351 -148 -410 -304 -19 -50 -23 -81 -23 -167
0 -101 1 -108 38 -181 62 -127 176 -216 382 -299 268 -108 355 -194 355 -349
0 -117 -58 -202 -175 -257 -55 -26 -69 -28 -180 -28 -137 1 -209 16 -324 70
-40 19 -75 35 -76 35 -2 0 -15 -38 -30 -85 -14 -47 -28 -91 -31 -98 -7 -19
110 -71 221 -98 116 -29 323 -32 429 -6 223 55 366 203 398 409 24 160 -23
308 -129 409 -74 71 -149 114 -326 189 -236 100 -307 167 -315 295 -5 78 10
126 56 177 61 68 120 91 242 96 118 4 206 -12 291 -53 29 -14 53 -24 55 -22 4
4 64 179 64 187 0 11 -114 55 -180 70 -71 15 -271 22 -332 10z"/>
<path d="M18580 2424 c-19 -2 -72 -9 -117 -15 l-83 -11 0 -859 0 -859 120 0
120 0 0 376 0 376 148 -4 c124 -4 155 -8 197 -27 116 -51 158 -127 219 -389
24 -103 55 -218 68 -257 l23 -70 124 -3 c115 -2 123 -1 116 15 -27 68 -52 154
-96 330 -27 112 -58 227 -70 258 -29 78 -97 165 -156 200 l-50 29 57 27 c232
109 324 395 205 635 -42 85 -102 143 -190 185 -113 53 -162 61 -390 64 -115 2
-226 1 -245 -1z m425 -198 c100 -31 173 -97 203 -185 7 -19 12 -69 12 -111 0
-139 -70 -237 -208 -291 -49 -19 -82 -23 -225 -27 l-167 -4 2 313 3 314 50 7
c82 10 275 1 330 -16z"/>
<path d="M12840 1550 l0 -870 111 0 112 0 -5 708 c-3 389 -8 716 -12 727 -3
11 6 -7 22 -40 67 -139 204 -371 514 -867 l330 -528 119 0 119 0 0 870 0 870
-111 0 -111 0 6 -667 c3 -368 8 -688 12 -712 6 -39 -4 -25 -68 100 -96 185
-153 278 -498 827 l-285 452 -127 0 -128 0 0 -870z"/>
<path d="M14660 1550 l0 -870 120 0 120 0 0 870 0 870 -120 0 -120 0 0 -870z"/>
<path d="M15230 2413 c0 -4 127 -396 282 -871 l282 -863 129 3 129 3 304 850
c167 468 307 858 310 868 5 16 -5 17 -119 17 l-125 0 -20 -57 c-241 -700 -373
-1093 -417 -1243 l-53 -184 -12 44 c-51 198 -150 528 -329 1090 l-109 345
-126 3 c-69 1 -126 -1 -126 -5z"/>
<path d="M16980 1550 l0 -870 495 0 495 0 0 100 0 100 -375 0 -375 0 0 305 0
305 335 0 335 0 0 100 0 100 -335 0 -335 0 0 265 0 265 355 0 355 0 0 100 0
100 -475 0 -475 0 0 -870z"/>
<path d="M21300 1550 l0 -870 120 0 120 0 0 870 0 870 -120 0 -120 0 0 -870z"/>
<path d="M21860 2320 l0 -100 260 0 260 0 0 -770 0 -770 120 0 120 0 0 770 0
770 265 0 265 0 0 100 0 100 -645 0 -645 0 0 -100z"/>
<path d="M23381 2398 c7 -13 131 -238 275 -501 l264 -477 0 -370 0 -370 120 0
120 0 0 371 0 370 271 467 c149 257 280 482 291 500 l20 32 -134 0 -134 0
-134 -257 c-74 -142 -169 -326 -210 -410 l-76 -152 -205 407 -206 407 -137 3
-137 3 12 -23z"/>
</g>
</svg>
